<?xml version="1.0" encoding="UTF-8"?>
<svg version="1.1" viewBox="0 0 2048 785" width="120" height="80" xmlns="http://www.w3.org/2000/svg">
<path transform="translate(260,210)" d="m0 0h41l24 3 15 4 17 7 11 7 10 9 10 14 5 11 5 16 2 13-3 1-65 4h-15l-3-9-7-14-7-6-11-5-4-1h-22l-10 4-5 4-4 8v9l4 6 5 4 13 5 54 13 30 10 16 8 10 6 11 9 10 12 7 14 4 14 1 6v20l-3 15-6 16-6 10-12 15-11 9-15 9-19 7-18 4-17 2h-42l-19-2-23-5-13-5-10-5-9-7-6-5-9-11-8-13-7-16-4-16-2-13 1-1 78-5h5l6 21 7 12 8 7 13 6 13 2h8l14-3 9-5 5-5 4-6 1-3v-13l-4-8-5-5-7-5-24-8-36-9-26-9-17-8-12-8-10-9-8-9-8-16-4-17v-15l3-14 7-16 9-13 9-9 16-10 13-6 19-5z" fill="#FEBF1F"/>
<path transform="translate(1742,288)" d="m0 0h23l18 2 17 4 17 7 12 7 10 8 11 11 10 15 6 14 4 14 2 11v29l-4 19-6 15-7 13-11 13-12 11-13 8-16 7-20 5-15 2h-29l-21-3-20-6-15-8-12-9-15-15-9-14-7-16-4-17-1-7v-24l3-17 4-12 8-16 8-11 9-10 11-9 13-8 14-6 19-5zm4 55-11 4-10 9-5 8-4 12-2 15v11l2 15 4 12 7 10 7 6 9 4 5 1h11l10-3 9-6 7-8 5-12 2-10v-30l-4-15-6-10-5-5-5-4-11-4z" fill="#FEBF1F"/>
<path transform="translate(945,288)" d="m0 0h22l24 3 17 5 19 9 12 9 9 8 8 10 8 13 7 19 3 14 1 20-1 15-4 17-6 15-7 12-8 10-11 11-13 9-14 7-20 6-21 3h-29l-20-3-15-4-12-5-16-10-15-14-8-10-8-14-7-19-2-11-1-11v-12l3-21 6-18 8-15 9-11 13-13 14-9 15-7 17-5 12-2zm3 55-12 5-8 7-6 10-4 13-1 6v25l4 16 5 10 9 9 11 5 5 1h10l8-2 8-4 9-9 5-10 3-11 1-9v-19l-3-16-7-14-9-8-8-4-4-1z" fill="#FEBF1F"/>
<path transform="translate(1478,288)" d="m0 0h24l22 2 17 4 16 6 13 8 12 11 7 8 9 15 6 15-1 3-56 7-17 2-7-13-4-5-12-6-9-2h-9l-14 3-11 7-7 9-5 12-2 9-1 10v13l3 15 4 10 9 10 10 6 8 2h17l10-3 9-6 7-8 7-14 33 3 42 5-1 5-6 16-8 14-11 13-12 10-14 8-16 6-20 4-9 1h-35l-19-2-19-4-13-5-11-6-12-9-12-12-10-15-5-12-4-15-2-21 1-24 3-16 6-16 6-11 7-9 8-9 14-11 14-8 14-5 14-3z" fill="#FEBF1F"/>
<path transform="translate(1212,288)" d="m0 0h24l22 2 17 4 16 6 13 8 10 9 7 7 9 14 7 16 1 5-1 1-56 7-17 2-7-13-5-6-11-5-10-2-15 1-11 4-9 7-7 11-4 12-1 5-1 19 2 16 4 11 7 9 7 6 9 4 5 1h17l10-3 9-6 3-1 2-4 5-9 4-8 33 3 36 4 6 2-3 10-7 16-8 12-12 13-14 10-15 7-17 5-21 3h-35l-19-2-19-4-13-5-11-6-13-10-10-10-9-13-6-12-4-14-2-12v-35l3-17 4-13 8-15 7-9 8-9 14-11 12-7 17-6 13-3z" fill="#FEBF1F"/>
<path transform="translate(548,288)" d="m0 0h24l21 2 18 4 15 6 11 6 13 11 8 9 8 13 8 19-1 2-56 7-17 2-3-5-5-9-8-7-11-4-6-1-16 1-12 5-9 8-6 10-3 9-2 12v21l4 16 4 8 6 7 10 6 10 3h17l12-4 9-7 6-9 4-8 1-3 24 2 46 5 6 1-3 10-7 16-7 11-9 10-7 7-15 10-14 6-15 4-21 3h-34l-19-2-19-4-16-6-14-9-10-9-9-9-9-14-6-13-4-19-1-9v-22l2-18 5-17 8-16 9-12 10-10 15-11 15-7 13-4 18-3z" fill="#FEBF1F"/>
<path transform="translate(717,293)" d="m0 0h79l1 11v194l-50 1h-29l-1-1z" fill="#FEBF1F"/>
<path transform="translate(717,215)" d="m0 0h79l1 4v48l-2 2h-77l-1-1z" fill="#FEBF1F"/>
</svg>
